<?xml version="1.0" encoding="UTF-8"?>
<svg width="64px" height="64px" viewBox="0 0 64 64" version="1.1" xmlns="http://www.w3.org/2000/svg" xmlns:xlink="http://www.w3.org/1999/xlink">
    <!-- Generator: Sketch 41.1 (35376) - http://www.bohemiancoding.com/sketch -->
    <title>Group</title>
    <desc>Created with Sketch.</desc>
    <defs></defs>
    <g id="Page-1" stroke="none" stroke-width="1" fill="none" fill-rule="evenodd">
        <g id="Group" transform="translate(-8.000000, -8.000000)">
            <g id="Layer_1" transform="translate(8.000000, 8.000000)">
                <circle id="Oval" fill="#000000" cx="32" cy="32" r="32"></circle>
                <path d="M13.8509722,47.4868023 C15.4469722,49.5578023 18.7429722,49.6928023 21.2129722,47.7898023 C22.2179722,47.0148023 23.9999722,44.9108023 23.9999722,40.5978023 L23.9999722,27.2608023 L42.9999722,23.6318023 L42.9999722,32.0498023 C42.9999722,35.0198023 40.5949722,35.7018023 39.7899722,35.8538023 C39.7199722,35.8628023 39.6509722,35.8798023 39.5809722,35.8918023 C38.5529722,36.0798023 37.5949722,36.4788023 36.7349722,37.1398023 C34.2649722,39.0428023 33.5539722,42.2638023 35.1499722,44.3358023 C36.7459722,46.4068023 40.0419722,46.5438023 42.5119722,44.6408023 C43.7629722,43.6768023 44.9999722,41.8168023 44.9999722,38.9108023 L44.9999722,16.5808023 C44.9999722,15.4028023 44.0439722,14.7378023 42.8669722,15.0978023 L23.6669722,18.7268023 C22.4889722,19.0858023 21.9999722,20.3338023 21.9999722,21.5118023 L21.9999722,34.5048023 C21.9999722,37.4788023 19.2549722,38.8558023 18.4529722,39.0048023 C18.4119722,39.0108023 18.3719722,39.0238023 18.3289722,39.0308023 C18.2239722,39.0478023 18.1559722,39.0538023 18.1559722,39.0538023 C17.2359722,39.2418023 16.2869722,39.6368023 15.4359722,40.2918023 C12.9659722,42.1938023 12.2579722,45.4148023 13.8509722,47.4868023 Z" id="Shape" fill="#FFFFFF"></path>
            </g>
            <rect id="Rectangle" x="0" y="0" width="80" height="80"></rect>
        </g>
    </g>
</svg>