<?xml version="1.0" encoding="UTF-8" standalone="no"?>
<svg width="359px" height="363px" viewBox="0 0 359 363" version="1.1" xmlns="http://www.w3.org/2000/svg" xmlns:xlink="http://www.w3.org/1999/xlink">
    <!-- Generator: Sketch 3.7.1 (28215) - http://www.bohemiancoding.com/sketch -->
    <title>Group 2</title>
    <desc>Created with Sketch.</desc>
    <defs></defs>
    <g id="Page-1" stroke="none" stroke-width="1" fill="none" fill-rule="evenodd">
        <g id="Group-2" transform="translate(1.000000, 1.000000)">
            <path d="M148,134.446283 C148,130.485978 150.807778,128.864127 154.242825,130.845636 L233.648084,176.672789 C237.081774,178.654299 237.081774,181.898002 233.648084,183.876797 L154.242825,229.705308 C150.809136,231.686817 148,230.064966 148,226.104661 L148,134.446283" id="Fill-1" fill="#F26F21"></path>
            <path d="M-2.84217094e-14,180.105626 C-2.84217094e-14,279.574681 80.6706598,360.209896 180.177055,360.209896 C262.72545,360.209896 332.261397,304.695062 353.573626,228.98919 L277.048104,208.042194 C264.895097,250.094979 226.106217,280.964452 180.177055,280.964452 C124.541509,280.964452 79.2817059,235.718179 79.2817059,180.105626 C79.2817059,124.491717 124.542866,79.2468014 180.177055,79.2468014 C228.755141,79.2468014 269.408179,113.748136 278.946205,159.519645 L356.718119,143.971582 C339.982786,61.8203768 267.294199,0 180.177055,0 C80.6706598,0 -2.84217094e-14,80.6365723 -2.84217094e-14,180.105626 Z" id="Fill-2" stroke="#BABABA" stroke-width="2" fill="#FFFFFF" opacity="0.848938899"></path>
        </g>
    </g>
</svg>