<?xml version="1.0" encoding="UTF-8" standalone="no"?>
<svg width="118px" height="35px" viewBox="0 0 118 35" version="1.1" xmlns="http://www.w3.org/2000/svg" xmlns:xlink="http://www.w3.org/1999/xlink">
    <!-- Generator: Sketch 3.7.2 (28276) - http://www.bohemiancoding.com/sketch -->
    <title>google-play-badge_EN</title>
    <desc>Created with Sketch.</desc>
    <defs>
        <linearGradient x1="91.5361538%" y1="4.8388%" x2="-37.5592308%" y2="71.9684%" id="linearGradient-1">
            <stop stop-color="#00A0FF" offset="0%"></stop>
            <stop stop-color="#00A1FF" offset="0.657445%"></stop>
            <stop stop-color="#00BEFF" offset="26.01%"></stop>
            <stop stop-color="#00D2FF" offset="51.22%"></stop>
            <stop stop-color="#00DFFF" offset="76.04%"></stop>
            <stop stop-color="#00E3FF" offset="100%"></stop>
        </linearGradient>
        <linearGradient x1="107.728079%" y1="49.4282353%" x2="-130.665025%" y2="49.4282353%" id="linearGradient-2">
            <stop stop-color="#FFE000" offset="0%"></stop>
            <stop stop-color="#FFBD00" offset="40.87%"></stop>
            <stop stop-color="#FFA500" offset="77.54%"></stop>
            <stop stop-color="#FF9C00" offset="100%"></stop>
        </linearGradient>
        <linearGradient x1="86.3892216%" y1="17.8150459%" x2="-49.888024%" y2="194.392791%" id="linearGradient-3">
            <stop stop-color="#FF3A44" offset="0%"></stop>
            <stop stop-color="#C31162" offset="100%"></stop>
        </linearGradient>
        <linearGradient x1="-18.5790419%" y1="-54.5266535%" x2="42.2748503%" y2="24.6901019%" id="linearGradient-4">
            <stop stop-color="#32A071" offset="0%"></stop>
            <stop stop-color="#2DA771" offset="6.85%"></stop>
            <stop stop-color="#15CF74" offset="47.62%"></stop>
            <stop stop-color="#06E775" offset="80.09%"></stop>
            <stop stop-color="#00F076" offset="100%"></stop>
        </linearGradient>
    </defs>
    <g id="badge" stroke="none" stroke-width="1" fill="none" fill-rule="evenodd">
        <g id="Artboard-1" transform="translate(0.000000, -41.000000)">
            <g id="google-play-badge_EN" transform="translate(0.000000, 41.000000)">
                <g id="artwork">
                    <g id="Group">
                        <path d="M113.62963,34.962963 L4.37037037,34.962963 C1.92296296,34.962963 0,33.04 0,30.5925926 L0,4.37037037 C0,1.92296296 1.92296296,0 4.37037037,0 L113.62963,0 C116.077037,0 118,1.92296296 118,4.37037037 L118,30.5925926 C118,32.9525926 116.077037,34.962963 113.62963,34.962963 L113.62963,34.962963 Z" id="Shape" fill="#000000"></path>
                        <path d="M113.62963,0.699259259 C115.64,0.699259259 117.300741,2.36 117.300741,4.37037037 L117.300741,30.5925926 C117.300741,32.602963 115.64,34.2637037 113.62963,34.2637037 L4.37037037,34.2637037 C2.36,34.2637037 0.699259259,32.602963 0.699259259,30.5925926 L0.699259259,4.37037037 C0.699259259,2.36 2.36,0.699259259 4.37037037,0.699259259 L113.62963,0.699259259 L113.62963,0.699259259 Z M113.62963,0 L4.37037037,0 C1.92296296,0 0,1.92296296 0,4.37037037 L0,30.5925926 C0,33.04 1.92296296,34.962963 4.37037037,34.962963 L113.62963,34.962963 C116.077037,34.962963 118,33.04 118,30.5925926 L118,4.37037037 C118,2.01037037 116.077037,0 113.62963,0 L113.62963,0 L113.62963,0 Z" id="Shape" fill="#A6A6A6"></path>
                        <g transform="translate(35.837037, 5.244444)" id="Shape" stroke="#FFFFFF" stroke-width="0.2" fill="#FFFFFF">
                            <path d="M5.59407407,3.67111111 C5.59407407,4.37037037 5.41925926,4.98222222 4.98222222,5.41925926 C4.45777778,5.9437037 3.84592593,6.20592593 3.05925926,6.20592593 C2.27259259,6.20592593 1.66074074,5.9437037 1.1362963,5.41925926 C0.611851852,4.89481481 0.34962963,4.28296296 0.34962963,3.4962963 C0.34962963,2.70962963 0.611851852,2.09777778 1.1362963,1.57333333 C1.66074074,1.04888889 2.27259259,0.786666667 3.05925926,0.786666667 C3.40888889,0.786666667 3.75851852,0.874074074 4.10814815,1.04888889 C4.45777778,1.2237037 4.72,1.39851852 4.89481481,1.66074074 L4.45777778,2.09777778 C4.10814815,1.66074074 3.67111111,1.48592593 3.05925926,1.48592593 C2.53481481,1.48592593 2.01037037,1.66074074 1.66074074,2.09777778 C1.2237037,2.44740741 1.04888889,2.97185185 1.04888889,3.5837037 C1.04888889,4.19555556 1.2237037,4.72 1.66074074,5.06962963 C2.09777778,5.41925926 2.53481481,5.68148148 3.05925926,5.68148148 C3.67111111,5.68148148 4.10814815,5.50666667 4.54518519,5.06962963 C4.80740741,4.80740741 4.98222222,4.45777778 4.98222222,4.02074074 L3.05925926,4.02074074 L3.05925926,3.40888889 L5.59407407,3.40888889 C5.59407407,3.40888889 5.59407407,3.5837037 5.59407407,3.67111111 L5.59407407,3.67111111 Z"></path>
                            <polygon points="9.61481481 1.48592593 7.25481481 1.48592593 7.25481481 3.14666667 9.44 3.14666667 9.44 3.75851852 7.25481481 3.75851852 7.25481481 5.41925926 9.61481481 5.41925926 9.61481481 6.11851852 6.55555556 6.11851852 6.55555556 0.874074074 9.61481481 0.874074074"></polygon>
                            <polygon points="12.4992593 6.11851852 11.8 6.11851852 11.8 1.48592593 10.3140741 1.48592593 10.3140741 0.874074074 13.9851852 0.874074074 13.9851852 1.48592593 12.4992593 1.48592593"></polygon>
                            <polygon points="16.52 6.11851852 16.52 0.874074074 17.2192593 0.874074074 17.2192593 6.11851852"></polygon>
                            <polygon points="20.1911111 6.11851852 19.4918519 6.11851852 19.4918519 1.48592593 18.0059259 1.48592593 18.0059259 0.874074074 21.5896296 0.874074074 21.5896296 1.48592593 20.1037037 1.48592593 20.1037037 6.11851852"></polygon>
                            <path d="M28.4948148,5.41925926 C27.9703704,5.9437037 27.3585185,6.20592593 26.5718519,6.20592593 C25.7851852,6.20592593 25.1733333,5.9437037 24.6488889,5.41925926 C24.1244444,4.89481481 23.8622222,4.28296296 23.8622222,3.4962963 C23.8622222,2.70962963 24.1244444,2.09777778 24.6488889,1.57333333 C25.1733333,1.04888889 25.7851852,0.786666667 26.5718519,0.786666667 C27.3585185,0.786666667 27.9703704,1.04888889 28.4948148,1.57333333 C29.0192593,2.09777778 29.2814815,2.70962963 29.2814815,3.4962963 C29.2814815,4.28296296 29.0192593,4.89481481 28.4948148,5.41925926 L28.4948148,5.41925926 Z M25.1733333,4.98222222 C25.522963,5.33185185 26.0474074,5.59407407 26.5718519,5.59407407 C27.0962963,5.59407407 27.6207407,5.41925926 27.9703704,4.98222222 C28.32,4.63259259 28.5822222,4.10814815 28.5822222,3.4962963 C28.5822222,2.88444444 28.4074074,2.36 27.9703704,2.01037037 C27.6207407,1.66074074 27.0962963,1.39851852 26.5718519,1.39851852 C26.0474074,1.39851852 25.522963,1.57333333 25.1733333,2.01037037 C24.8237037,2.36 24.5614815,2.88444444 24.5614815,3.4962963 C24.5614815,4.10814815 24.7362963,4.63259259 25.1733333,4.98222222 L25.1733333,4.98222222 Z"></path>
                            <polygon points="30.242963 6.11851852 30.242963 0.874074074 31.0296296 0.874074074 33.5644444 4.98222222 33.5644444 4.98222222 33.5644444 3.93333333 33.5644444 0.874074074 34.2637037 0.874074074 34.2637037 6.11851852 33.5644444 6.11851852 30.8548148 1.83555556 30.8548148 1.83555556 30.8548148 2.88444444 30.8548148 6.11851852"></polygon>
                        </g>
                        <path d="M59.5244444,19.0548148 C57.4266667,19.0548148 55.7659259,20.6281481 55.7659259,22.8133333 C55.7659259,24.9111111 57.4266667,26.5718519 59.5244444,26.5718519 C61.6222222,26.5718519 63.282963,24.9985185 63.282963,22.8133333 C63.282963,20.5407407 61.6222222,19.0548148 59.5244444,19.0548148 L59.5244444,19.0548148 Z M59.5244444,24.9985185 C58.3881481,24.9985185 57.4266667,24.037037 57.4266667,22.7259259 C57.4266667,21.4148148 58.3881481,20.4533333 59.5244444,20.4533333 C60.6607407,20.4533333 61.6222222,21.3274074 61.6222222,22.7259259 C61.6222222,24.037037 60.6607407,24.9985185 59.5244444,24.9985185 L59.5244444,24.9985185 Z M51.3955556,19.0548148 C49.2977778,19.0548148 47.637037,20.6281481 47.637037,22.8133333 C47.637037,24.9111111 49.2977778,26.5718519 51.3955556,26.5718519 C53.4933333,26.5718519 55.1540741,24.9985185 55.1540741,22.8133333 C55.1540741,20.5407407 53.4933333,19.0548148 51.3955556,19.0548148 L51.3955556,19.0548148 Z M51.3955556,24.9985185 C50.2592593,24.9985185 49.2977778,24.037037 49.2977778,22.7259259 C49.2977778,21.4148148 50.2592593,20.4533333 51.3955556,20.4533333 C52.5318519,20.4533333 53.4933333,21.3274074 53.4933333,22.7259259 C53.4933333,24.037037 52.5318519,24.9985185 51.3955556,24.9985185 L51.3955556,24.9985185 Z M41.6933333,20.1911111 L41.6933333,21.7644444 L45.4518519,21.7644444 C45.3644444,22.6385185 45.0148148,23.3377778 44.5777778,23.7748148 C44.0533333,24.2992593 43.1792593,24.9111111 41.6933333,24.9111111 C39.3333333,24.9111111 37.5851852,23.0755556 37.5851852,20.7155556 C37.5851852,18.3555556 39.4207407,16.52 41.6933333,16.52 C42.917037,16.52 43.8785185,17.0444444 44.5777778,17.6562963 L45.7140741,16.52 C44.7525926,15.6459259 43.5288889,14.9466667 41.7807407,14.9466667 C38.6340741,14.9466667 35.9244444,17.5688889 35.9244444,20.7155556 C35.9244444,23.8622222 38.6340741,26.4844444 41.7807407,26.4844444 C43.5288889,26.4844444 44.7525926,25.96 45.8014815,24.8237037 C46.8503704,23.7748148 47.2,22.2888889 47.2,21.1525926 C47.2,20.802963 47.2,20.4533333 47.1125926,20.1911111 L41.6933333,20.1911111 L41.6933333,20.1911111 Z M81.3762963,21.4148148 C81.0266667,20.5407407 80.1525926,19.0548148 78.2296296,19.0548148 C76.3066667,19.0548148 74.7333333,20.5407407 74.7333333,22.8133333 C74.7333333,24.9111111 76.3066667,26.5718519 78.4044444,26.5718519 C80.0651852,26.5718519 81.1140741,25.522963 81.4637037,24.9111111 L80.24,24.037037 C79.802963,24.6488889 79.2785185,25.0859259 78.4044444,25.0859259 C77.5303704,25.0859259 77.0059259,24.7362963 76.5688889,23.9496296 L81.5511111,21.8518519 L81.3762963,21.4148148 L81.3762963,21.4148148 Z M76.3066667,22.6385185 C76.3066667,21.24 77.442963,20.4533333 78.2296296,20.4533333 C78.8414815,20.4533333 79.4533333,20.802963 79.6281481,21.24 L76.3066667,22.6385185 L76.3066667,22.6385185 Z M72.1985185,26.2222222 L73.8592593,26.2222222 L73.8592593,15.2962963 L72.1985185,15.2962963 L72.1985185,26.2222222 L72.1985185,26.2222222 Z M69.5762963,19.8414815 L69.5762963,19.8414815 C69.1392593,19.4044444 68.44,18.9674074 67.5659259,18.9674074 C65.7303704,18.9674074 63.9822222,20.6281481 63.9822222,22.7259259 C63.9822222,24.8237037 65.642963,26.397037 67.5659259,26.397037 C68.44,26.397037 69.1392593,25.96 69.4888889,25.522963 L69.5762963,25.522963 L69.5762963,26.0474074 C69.5762963,27.4459259 68.7896296,28.2325926 67.5659259,28.2325926 C66.6044444,28.2325926 65.9051852,27.5333333 65.7303704,26.9214815 L64.3318519,27.5333333 C64.7688889,28.4948148 65.8177778,29.7185185 67.6533333,29.7185185 C69.5762963,29.7185185 71.1496296,28.5822222 71.1496296,25.8725926 L71.1496296,19.2296296 L69.5762963,19.2296296 L69.5762963,19.8414815 L69.5762963,19.8414815 Z M67.6533333,24.9985185 C66.517037,24.9985185 65.5555556,24.037037 65.5555556,22.7259259 C65.5555556,21.4148148 66.517037,20.4533333 67.6533333,20.4533333 C68.7896296,20.4533333 69.6637037,21.4148148 69.6637037,22.7259259 C69.6637037,24.037037 68.7896296,24.9985185 67.6533333,24.9985185 L67.6533333,24.9985185 Z M88.9807407,15.2962963 L85.0474074,15.2962963 L85.0474074,26.2222222 L86.7081481,26.2222222 L86.7081481,22.1140741 L88.9807407,22.1140741 C90.8162963,22.1140741 92.5644444,20.802963 92.5644444,18.7051852 C92.5644444,16.6074074 90.8162963,15.2962963 88.9807407,15.2962963 L88.9807407,15.2962963 Z M89.0681481,20.5407407 L86.7081481,20.5407407 L86.7081481,16.7822222 L89.0681481,16.7822222 C90.2918519,16.7822222 90.9911111,17.8311111 90.9911111,18.6177778 C90.9037037,19.5792593 90.2044444,20.5407407 89.0681481,20.5407407 L89.0681481,20.5407407 Z M99.12,18.9674074 C97.8962963,18.9674074 96.6725926,19.4918519 96.2355556,20.6281481 L97.7214815,21.24 C98.0711111,20.6281481 98.5955556,20.4533333 99.2074074,20.4533333 C100.081481,20.4533333 100.868148,20.9777778 100.955556,21.8518519 L100.955556,21.9392593 C100.693333,21.7644444 99.9940741,21.5022222 99.2948148,21.5022222 C97.7214815,21.5022222 96.1481481,22.3762963 96.1481481,23.9496296 C96.1481481,25.4355556 97.4592593,26.397037 98.8577778,26.397037 C99.9940741,26.397037 100.518519,25.8725926 100.955556,25.3481481 L101.042963,25.3481481 L101.042963,26.2222222 L102.616296,26.2222222 L102.616296,22.0266667 C102.441481,20.1037037 100.955556,18.9674074 99.12,18.9674074 L99.12,18.9674074 Z M98.9451852,24.9985185 C98.4207407,24.9985185 97.6340741,24.7362963 97.6340741,24.037037 C97.6340741,23.162963 98.5955556,22.9007407 99.3822222,22.9007407 C100.081481,22.9007407 100.431111,23.0755556 100.868148,23.2503704 C100.693333,24.2992593 99.8192593,24.9985185 98.9451852,24.9985185 L98.9451852,24.9985185 Z M108.122963,19.2296296 L106.287407,23.9496296 L106.2,23.9496296 L104.277037,19.2296296 L102.528889,19.2296296 L105.413333,25.8725926 L103.752593,29.5437037 L105.413333,29.5437037 L109.871111,19.2296296 L108.122963,19.2296296 L108.122963,19.2296296 Z M93.4385185,26.2222222 L95.0992593,26.2222222 L95.0992593,15.2962963 L93.4385185,15.2962963 L93.4385185,26.2222222 L93.4385185,26.2222222 Z" id="Shape" fill="#FFFFFF"></path>
                        <g transform="translate(7.866667, 6.118519)" id="Shape">
                            <path d="M1.2237037,0.437037037 C0.961481481,0.699259259 0.786666667,1.1362963 0.786666667,1.66074074 L0.786666667,20.9777778 C0.786666667,21.5022222 0.961481481,21.9392593 1.2237037,22.2014815 L1.31111111,22.2888889 L12.1496296,11.4503704 L12.1496296,11.362963 L12.1496296,11.2755556 L1.2237037,0.437037037 L1.2237037,0.437037037 L1.2237037,0.437037037 Z" fill="url(#linearGradient-1)"></path>
                            <path d="M15.7333333,15.1214815 L12.1496296,11.5377778 L12.1496296,11.362963 L12.1496296,11.2755556 L15.7333333,7.69185185 L15.8207407,7.77925926 L20.1037037,10.2266667 C21.3274074,10.9259259 21.3274074,12.0622222 20.1037037,12.7614815 L15.7333333,15.1214815 L15.7333333,15.1214815 L15.7333333,15.1214815 Z" fill="url(#linearGradient-2)"></path>
                            <path d="M15.8207407,15.0340741 L12.1496296,11.362963 L1.2237037,22.2888889 C1.66074074,22.7259259 2.27259259,22.7259259 3.05925926,22.3762963 L15.8207407,15.0340741" fill="url(#linearGradient-3)"></path>
                            <path d="M15.8207407,7.69185185 L3.05925926,0.437037037 C2.27259259,-1.52655666e-15 1.66074074,0.0874074074 1.2237037,0.524444444 L12.1496296,11.362963 L15.8207407,7.69185185 L15.8207407,7.69185185 Z" fill="url(#linearGradient-4)"></path>
                            <g transform="translate(0.874074, 14.859259)" fill="#000000">
                                <path d="M14.8592593,0.0874074074 L2.18518519,7.25481481 C1.48592593,7.69185185 0.874074074,7.60444444 0.437037037,7.25481481 L0.437037037,7.25481481 L0.34962963,7.34222222 L0.34962963,7.34222222 L0.437037037,7.42962963 L0.437037037,7.42962963 C0.874074074,7.77925926 1.48592593,7.86666667 2.18518519,7.42962963 L14.8592593,0.0874074074 L14.8592593,0.0874074074 L14.8592593,0.0874074074 Z" opacity="0.2"></path>
                                <path opacity="0.12"></path>
                            </g>
                            <path d="M20.1037037,12.4992593 L15.7333333,14.9466667 L15.8207407,15.0340741 L20.1037037,12.5866667 C20.7155556,12.237037 20.9777778,11.8 20.9777778,11.362963 L20.9777778,11.362963 C20.9777778,11.8 20.6281481,12.1496296 20.1037037,12.4992593 L20.1037037,12.4992593 Z" fill="#000000" opacity="0.12"></path>
                            <path d="M3.05925926,0.524444444 L20.1037037,10.2266667 C20.6281481,10.5762963 20.9777778,10.9259259 20.9777778,11.362963 L20.9777778,11.362963 C20.9777778,10.9259259 20.7155556,10.4888889 20.1037037,10.1392593 L3.05925926,0.437037037 C1.83555556,-0.262222222 0.874074074,0.34962963 0.874074074,1.74814815 L0.874074074,1.83555556 C0.874074074,0.437037037 1.83555556,-0.174814815 3.05925926,0.524444444 L3.05925926,0.524444444 Z" fill="#FFFFFF" opacity="0.25"></path>
                        </g>
                    </g>
                </g>
            </g>
        </g>
    </g>
</svg>