<?xml version="1.0" encoding="UTF-8" standalone="no"?>
<svg width="118px" height="35px" viewBox="0 0 118 35" version="1.1" xmlns="http://www.w3.org/2000/svg" xmlns:xlink="http://www.w3.org/1999/xlink">
    <!-- Generator: Sketch 3.7.2 (28276) - http://www.bohemiancoding.com/sketch -->
    <title>google-play-badge_CN</title>
    <desc>Created with Sketch.</desc>
    <defs>
        <linearGradient x1="91.5361538%" y1="4.8388%" x2="-37.5592308%" y2="71.9684%" id="linearGradient-1">
            <stop stop-color="#00A0FF" offset="0%"></stop>
            <stop stop-color="#00A1FF" offset="0.657445%"></stop>
            <stop stop-color="#00BEFF" offset="26.01%"></stop>
            <stop stop-color="#00D2FF" offset="51.22%"></stop>
            <stop stop-color="#00DFFF" offset="76.04%"></stop>
            <stop stop-color="#00E3FF" offset="100%"></stop>
        </linearGradient>
        <linearGradient x1="107.728079%" y1="49.4294118%" x2="-130.665025%" y2="49.4294118%" id="linearGradient-2">
            <stop stop-color="#FFE000" offset="0%"></stop>
            <stop stop-color="#FFBD00" offset="40.87%"></stop>
            <stop stop-color="#FFA500" offset="77.54%"></stop>
            <stop stop-color="#FF9C00" offset="100%"></stop>
        </linearGradient>
        <linearGradient x1="86.3892216%" y1="17.8150459%" x2="-49.888024%" y2="194.392791%" id="linearGradient-3">
            <stop stop-color="#FF3A44" offset="0%"></stop>
            <stop stop-color="#C31162" offset="100%"></stop>
        </linearGradient>
        <linearGradient x1="-18.5790419%" y1="-54.5266535%" x2="42.2748503%" y2="24.6901019%" id="linearGradient-4">
            <stop stop-color="#32A071" offset="0%"></stop>
            <stop stop-color="#2DA771" offset="6.85%"></stop>
            <stop stop-color="#15CF74" offset="47.62%"></stop>
            <stop stop-color="#06E775" offset="80.09%"></stop>
            <stop stop-color="#00F076" offset="100%"></stop>
        </linearGradient>
    </defs>
    <g id="badge" stroke="none" stroke-width="1" fill="none" fill-rule="evenodd">
        <g id="Artboard-1">
            <g id="google-play-badge_CN">
                <g id="Group">
                    <g id="artwork">
                        <g id="Group">
                            <path d="M113.62963,34.962963 L4.37037037,34.962963 C1.92296296,34.962963 0,33.04 0,30.5925926 L0,4.37037037 C0,1.92296296 1.92296296,0 4.37037037,0 L113.62963,0 C116.077037,0 118,1.92296296 118,4.37037037 L118,30.5925926 C118,32.9525926 116.077037,34.962963 113.62963,34.962963 L113.62963,34.962963 Z" id="Shape" fill="#000000"></path>
                            <path d="M113.62963,0.699259259 C115.64,0.699259259 117.300741,2.36 117.300741,4.37037037 L117.300741,30.5925926 C117.300741,32.602963 115.64,34.2637037 113.62963,34.2637037 L4.37037037,34.2637037 C2.36,34.2637037 0.699259259,32.602963 0.699259259,30.5925926 L0.699259259,4.37037037 C0.699259259,2.36 2.36,0.699259259 4.37037037,0.699259259 L113.62963,0.699259259 L113.62963,0.699259259 Z M113.62963,0 L4.37037037,0 C1.92296296,0 0,1.92296296 0,4.37037037 L0,30.5925926 C0,33.04 1.92296296,34.962963 4.37037037,34.962963 L113.62963,34.962963 C116.077037,34.962963 118,33.04 118,30.5925926 L118,4.37037037 C118,2.01037037 116.077037,0 113.62963,0 L113.62963,0 L113.62963,0 Z" id="Shape" fill="#A6A6A6"></path>
                            <path d="M56.5525926,11.1881481 C54.717037,11.1881481 53.3185185,12.5866667 53.3185185,14.4222222 C53.3185185,16.2577778 54.8044444,17.6562963 56.5525926,17.6562963 C58.3881481,17.6562963 59.7866667,16.2577778 59.7866667,14.4222222 C59.8740741,12.5866667 58.3881481,11.1881481 56.5525926,11.1881481 L56.5525926,11.1881481 Z M56.5525926,16.4325926 C55.5911111,16.4325926 54.717037,15.6459259 54.717037,14.4222222 C54.717037,13.2859259 55.5911111,12.4118519 56.5525926,12.4118519 C57.5140741,12.4118519 58.3881481,13.1985185 58.3881481,14.4222222 C58.3881481,15.5585185 57.6014815,16.4325926 56.5525926,16.4325926 L56.5525926,16.4325926 Z M49.4725926,11.1881481 C47.637037,11.1881481 46.2385185,12.5866667 46.2385185,14.4222222 C46.2385185,16.2577778 47.7244444,17.6562963 49.4725926,17.6562963 C51.2207407,17.6562963 52.7066667,16.2577778 52.7066667,14.4222222 C52.7066667,12.5866667 51.2207407,11.1881481 49.4725926,11.1881481 L49.4725926,11.1881481 Z M49.4725926,16.4325926 C48.5111111,16.4325926 47.637037,15.6459259 47.637037,14.4222222 C47.637037,13.2859259 48.5111111,12.4118519 49.4725926,12.4118519 C50.4340741,12.4118519 51.3081481,13.1985185 51.3081481,14.4222222 C51.3081481,15.5585185 50.4340741,16.4325926 49.4725926,16.4325926 L49.4725926,16.4325926 Z M40.9940741,12.1496296 L40.9940741,13.5481481 L44.3155556,13.5481481 C44.2281481,14.3348148 43.9659259,14.8592593 43.5288889,15.2962963 C43.0918519,15.7333333 42.3051852,16.3451852 40.9940741,16.3451852 C38.9837037,16.3451852 37.4103704,14.6844444 37.4103704,12.6740741 C37.4103704,10.6637037 38.9837037,9.00296296 40.9940741,9.00296296 C42.1303704,9.00296296 42.917037,9.44 43.4414815,9.96444444 L44.402963,9.00296296 C43.6162963,8.2162963 42.48,7.60444444 40.9066667,7.60444444 C38.1096296,7.60444444 35.7496296,9.87703704 35.7496296,12.6740741 C35.7496296,15.4711111 38.1096296,17.7437037 40.9066667,17.7437037 C42.3925926,17.7437037 43.5288889,17.2192593 44.402963,16.3451852 C45.277037,15.4711111 45.6266667,14.16 45.6266667,13.1111111 C45.6266667,12.7614815 45.6266667,12.4992593 45.5392593,12.237037 L40.9940741,12.237037 L40.9940741,12.1496296 Z M75.6074074,13.2859259 C75.3451852,12.5866667 74.4711111,11.1881481 72.8103704,11.1881481 C71.1496296,11.1881481 69.7511111,12.4992593 69.7511111,14.4222222 C69.7511111,16.2577778 71.1496296,17.6562963 72.9851852,17.6562963 C74.4711111,17.6562963 75.3451852,16.7822222 75.6948148,16.2577778 L74.5585185,15.5585185 C74.2088889,16.082963 73.6844444,16.4325926 72.9851852,16.4325926 C72.2859259,16.4325926 71.7614815,16.082963 71.4118519,15.4711111 L75.7822222,13.6355556 L75.6074074,13.2859259 L75.6074074,13.2859259 Z M71.1496296,14.3348148 C71.1496296,13.1111111 72.1111111,12.4118519 72.8103704,12.4118519 C73.3348148,12.4118519 73.8592593,12.6740741 74.0340741,13.1111111 L71.1496296,14.3348148 L71.1496296,14.3348148 Z M67.6533333,17.4814815 L69.0518519,17.4814815 L69.0518519,7.95407407 L67.6533333,7.95407407 L67.6533333,17.4814815 L67.6533333,17.4814815 Z M65.2933333,11.8874074 L65.2933333,11.8874074 C64.9437037,11.5377778 64.3318519,11.1881481 63.5451852,11.1881481 C61.8844444,11.1881481 60.3985185,12.5866667 60.3985185,14.4222222 C60.3985185,16.2577778 61.8844444,17.6562963 63.5451852,17.6562963 C64.3318519,17.6562963 64.9437037,17.3066667 65.2933333,16.957037 L65.3807407,16.957037 L65.3807407,17.3940741 C65.3807407,18.6177778 64.6814815,19.317037 63.6325926,19.317037 C62.7585185,19.317037 62.2340741,18.7051852 61.9718519,18.1807407 L60.7481481,18.7051852 C61.0977778,19.5792593 62.0592593,20.6281481 63.6325926,20.6281481 C65.2933333,20.6281481 66.6918519,19.6666667 66.6918519,17.2192593 L66.6918519,11.362963 L65.3807407,11.362963 L65.3807407,11.8874074 L65.2933333,11.8874074 Z M63.6325926,16.4325926 C62.6711111,16.4325926 61.797037,15.6459259 61.797037,14.5096296 C61.797037,13.3733333 62.5837037,12.4992593 63.6325926,12.4992593 C64.5940741,12.4992593 65.3807407,13.3733333 65.3807407,14.5096296 C65.3807407,15.5585185 64.6814815,16.4325926 63.6325926,16.4325926 L63.6325926,16.4325926 Z M82.3377778,7.95407407 L78.9288889,7.95407407 L78.9288889,17.4814815 L80.3274074,17.4814815 L80.3274074,13.8977778 L82.3377778,13.8977778 C83.9111111,13.8977778 85.4844444,12.7614815 85.4844444,10.9259259 C85.4844444,9.09037037 83.9111111,7.95407407 82.3377778,7.95407407 L82.3377778,7.95407407 Z M82.3377778,12.4992593 L80.3274074,12.4992593 L80.3274074,9.26518519 L82.3377778,9.26518519 C83.3866667,9.26518519 83.9985185,10.1392593 83.9985185,10.9259259 C83.9985185,11.6251852 83.3866667,12.4992593 82.3377778,12.4992593 L82.3377778,12.4992593 Z M91.1659259,11.1881481 C90.117037,11.1881481 89.0681481,11.6251852 88.6311111,12.6740741 L89.8548148,13.1985185 C90.117037,12.6740741 90.6414815,12.4992593 91.1659259,12.4992593 C91.8651852,12.4992593 92.6518519,12.9362963 92.6518519,13.722963 L92.6518519,13.8103704 C92.3896296,13.6355556 91.8651852,13.4607407 91.1659259,13.4607407 C89.7674074,13.4607407 88.4562963,14.2474074 88.4562963,15.6459259 C88.4562963,16.957037 89.5925926,17.7437037 90.8162963,17.7437037 C91.7777778,17.7437037 92.3022222,17.3066667 92.6518519,16.7822222 L92.7392593,16.7822222 L92.7392593,17.4814815 L94.1377778,17.4814815 L94.1377778,13.8103704 C94.0503704,12.1496296 92.7392593,11.1881481 91.1659259,11.1881481 L91.1659259,11.1881481 Z M90.9911111,16.4325926 C90.5540741,16.4325926 89.8548148,16.1703704 89.8548148,15.6459259 C89.8548148,14.9466667 90.6414815,14.597037 91.3407407,14.597037 C91.9525926,14.597037 92.3022222,14.7718519 92.6518519,14.9466667 C92.5644444,15.7333333 91.7777778,16.4325926 90.9911111,16.4325926 L90.9911111,16.4325926 Z M99.0325926,11.362963 L97.3718519,15.4711111 L97.2844444,15.4711111 L95.6237037,11.362963 L94.0503704,11.362963 L96.5851852,17.1318519 L95.0992593,20.3659259 L96.5851852,20.3659259 L100.518519,11.362963 L99.0325926,11.362963 L99.0325926,11.362963 Z M86.1837037,17.4814815 L87.5822222,17.4814815 L87.5822222,7.95407407 L86.1837037,7.95407407 L86.1837037,17.4814815 L86.1837037,17.4814815 Z" id="Shape" fill="#FFFFFF"></path>
                            <g transform="translate(7.866667, 6.118519)" id="Shape">
                                <path d="M1.2237037,0.437037037 C0.961481481,0.699259259 0.786666667,1.1362963 0.786666667,1.66074074 L0.786666667,20.9777778 C0.786666667,21.5022222 0.961481481,21.9392593 1.2237037,22.2014815 L1.31111111,22.2888889 L12.1496296,11.4503704 L12.1496296,11.362963 L12.1496296,11.2755556 L1.2237037,0.437037037 L1.2237037,0.437037037 L1.2237037,0.437037037 Z" fill="url(#linearGradient-1)"></path>
                                <path d="M15.7333333,15.1214815 L12.1496296,11.5377778 L12.1496296,11.362963 L12.1496296,11.2755556 L15.7333333,7.69185185 L15.8207407,7.77925926 L20.1037037,10.2266667 C21.3274074,10.9259259 21.3274074,12.0622222 20.1037037,12.7614815 L15.7333333,15.1214815 L15.7333333,15.1214815 L15.7333333,15.1214815 Z" fill="url(#linearGradient-2)"></path>
                                <path d="M15.8207407,15.0340741 L12.1496296,11.362963 L1.2237037,22.2888889 C1.66074074,22.7259259 2.27259259,22.7259259 3.05925926,22.3762963 L15.8207407,15.0340741" fill="url(#linearGradient-3)"></path>
                                <path d="M15.8207407,7.69185185 L3.05925926,0.437037037 C2.27259259,-1.52655666e-15 1.66074074,0.0874074074 1.2237037,0.524444444 L12.1496296,11.362963 L15.8207407,7.69185185 L15.8207407,7.69185185 Z" fill="url(#linearGradient-4)"></path>
                                <g transform="translate(0.874074, 14.859259)" fill="#000000">
                                    <path d="M14.8592593,0.0874074074 L2.18518519,7.25481481 C1.48592593,7.69185185 0.874074074,7.60444444 0.437037037,7.25481481 L0.437037037,7.25481481 L0.34962963,7.34222222 L0.34962963,7.34222222 L0.437037037,7.42962963 L0.437037037,7.42962963 C0.874074074,7.77925926 1.48592593,7.86666667 2.18518519,7.42962963 L14.8592593,0.0874074074 L14.8592593,0.0874074074 L14.8592593,0.0874074074 Z" opacity="0.2"></path>
                                    <path opacity="0.12"></path>
                                </g>
                                <path d="M20.1037037,12.4992593 L15.7333333,14.9466667 L15.8207407,15.0340741 L20.1037037,12.5866667 C20.7155556,12.237037 20.9777778,11.8 20.9777778,11.362963 L20.9777778,11.362963 C20.9777778,11.8 20.6281481,12.1496296 20.1037037,12.4992593 L20.1037037,12.4992593 Z" fill="#000000" opacity="0.12"></path>
                                <path d="M3.05925926,0.524444444 L20.1037037,10.2266667 C20.6281481,10.5762963 20.9777778,10.9259259 20.9777778,11.362963 L20.9777778,11.362963 C20.9777778,10.9259259 20.7155556,10.4888889 20.1037037,10.1392593 L3.05925926,0.437037037 C1.83555556,-0.262222222 0.874074074,0.34962963 0.874074074,1.74814815 L0.874074074,1.83555556 C0.874074074,0.437037037 1.83555556,-0.174814815 3.05925926,0.524444444 L3.05925926,0.524444444 Z" fill="#FFFFFF" opacity="0.25"></path>
                            </g>
                        </g>
                    </g>
                    <g id="Layer_3" transform="translate(35.837037, 22.725926)" stroke-width="0.2" stroke="#FFFFFF" fill="#FFFFFF">
                        <g id="Group">
                            <path d="M0.34962963,5.59407407 L6.29333333,5.59407407 L6.29333333,6.03111111 L0.34962963,6.03111111 L0.34962963,5.59407407 L0.34962963,5.59407407 Z M6.11851852,1.57333333 L6.11851852,2.01037037 L0.611851852,2.01037037 L0.611851852,1.57333333 L3.14666667,1.57333333 L3.14666667,0.262222222 L3.75851852,0.262222222 C3.75851852,0.34962963 3.75851852,0.34962963 3.5837037,0.34962963 L3.5837037,1.57333333 L6.11851852,1.57333333 L6.11851852,1.57333333 Z M1.92296296,2.36 C2.27259259,3.23407407 2.53481481,4.37037037 2.53481481,5.15703704 C2.44740741,5.15703704 2.44740741,5.15703704 2.09777778,5.24444444 C2.09777778,4.54518519 1.83555556,3.32148148 1.48592593,2.44740741 L1.92296296,2.36 L1.92296296,2.36 Z M5.33185185,2.44740741 C5.33185185,2.53481481 5.24444444,2.53481481 5.15703704,2.53481481 C4.98222222,3.40888889 4.63259259,4.72 4.28296296,5.41925926 L3.93333333,5.24444444 C4.19555556,4.45777778 4.54518519,3.14666667 4.72,2.27259259 L5.33185185,2.44740741 L5.33185185,2.44740741 Z" id="Shape"></path>
                            <path d="M9.17777778,4.80740741 C9.00296296,4.54518519 8.74074074,4.28296296 8.56592593,4.02074074 L8.91555556,3.84592593 C9.44,4.37037037 9.87703704,5.06962963 10.1392593,5.59407407 L9.78962963,5.76888889 C9.70222222,5.59407407 9.61481481,5.33185185 9.44,5.15703704 C8.65333333,5.41925926 7.77925926,5.68148148 7.25481481,5.8562963 C7.25481481,5.9437037 7.25481481,5.9437037 7.16740741,5.9437037 L6.99259259,5.41925926 C7.16740741,5.41925926 7.25481481,5.33185185 7.42962963,5.33185185 L7.42962963,0.611851852 L9.78962963,0.611851852 L9.78962963,3.67111111 L7.86666667,3.67111111 L7.86666667,5.24444444 L9.17777778,4.80740741 L9.17777778,4.80740741 Z M9.35259259,0.961481481 L7.86666667,0.961481481 L7.86666667,1.83555556 L9.35259259,1.83555556 L9.35259259,0.961481481 L9.35259259,0.961481481 Z M7.86666667,3.23407407 L9.35259259,3.23407407 L9.35259259,2.36 L7.86666667,2.36 L7.86666667,3.23407407 L7.86666667,3.23407407 Z M12.7614815,0.611851852 L12.7614815,4.63259259 C12.7614815,5.15703704 12.4992593,5.24444444 11.5377778,5.24444444 C11.5377778,5.15703704 11.4503704,4.89481481 11.362963,4.80740741 L11.9748148,4.80740741 C12.3244444,4.80740741 12.3244444,4.80740741 12.3244444,4.63259259 L12.3244444,1.04888889 L10.8385185,1.04888889 L10.8385185,6.38074074 L10.4014815,6.38074074 L10.4014815,0.611851852 L12.7614815,0.611851852 L12.7614815,0.611851852 Z" id="Shape"></path>
                            <path d="M19.5792593,1.1362963 L16.7822222,1.1362963 L16.6948148,1.1362963 L16.6948148,2.27259259 L16.6948148,2.27259259 C17.5688889,2.70962963 18.6177778,3.32148148 19.1422222,3.67111111 L18.7925926,4.10814815 C18.3555556,3.75851852 17.3940741,3.14666667 16.6074074,2.70962963 L16.6074074,6.29333333 L16.1703704,6.29333333 L16.1703704,1.1362963 L13.5481481,1.1362963 L13.5481481,0.699259259 L19.4918519,0.699259259 L19.4918519,1.1362963 L19.5792593,1.1362963 Z" id="Shape"></path>
                            <path d="M24.2118519,2.09777778 C24.2992593,2.97185185 24.3866667,3.67111111 24.5614815,4.28296296 C24.9111111,3.75851852 25.1733333,3.05925926 25.4355556,2.44740741 L25.96,2.62222222 C25.96,2.70962963 25.8725926,2.70962963 25.7851852,2.70962963 C25.522963,3.4962963 25.1733333,4.19555556 24.7362963,4.89481481 C24.9111111,5.50666667 25.2607407,5.9437037 25.522963,5.9437037 C25.6977778,5.9437037 25.7851852,5.59407407 25.8725926,4.80740741 C25.96,4.89481481 26.1348148,4.98222222 26.2222222,5.06962963 C26.1348148,6.11851852 25.96,6.46814815 25.522963,6.46814815 C25.0859259,6.46814815 24.6488889,6.03111111 24.3866667,5.41925926 C24.037037,5.8562963 23.6874074,6.20592593 23.2503704,6.46814815 C23.162963,6.38074074 23.0755556,6.20592593 22.9007407,6.11851852 C23.0755556,6.03111111 23.2503704,5.8562963 23.3377778,5.76888889 L22.0266667,5.76888889 L22.0266667,6.46814815 L21.5896296,6.46814815 L21.5896296,5.76888889 L20.1037037,5.76888889 L20.1037037,5.24444444 L21.5896296,5.24444444 L21.5896296,4.89481481 L20.4533333,4.89481481 L20.4533333,3.23407407 L21.5896296,3.23407407 L21.5896296,2.88444444 L20.2785185,2.88444444 L20.2785185,2.53481481 L21.5896296,2.53481481 L21.5896296,2.09777778 L22.1140741,2.09777778 L22.0266667,2.18518519 L22.0266667,2.53481481 L23.4251852,2.53481481 L23.4251852,2.88444444 L22.0266667,2.88444444 L22.0266667,3.23407407 L23.2503704,3.23407407 L23.2503704,4.89481481 L22.0266667,4.89481481 L22.0266667,5.24444444 L23.4251852,5.24444444 L23.4251852,5.50666667 C23.6874074,5.24444444 23.9496296,4.98222222 24.1244444,4.72 C23.9496296,4.02074074 23.7748148,3.05925926 23.6874074,2.01037037 L20.1037037,2.01037037 L20.1037037,1.66074074 L21.5896296,1.66074074 L21.5896296,1.04888889 L20.3659259,1.04888889 L20.3659259,0.699259259 L21.5896296,0.699259259 L21.5896296,0.174814815 L22.1140741,0.174814815 C22.1140741,0.262222222 22.1140741,0.262222222 22.0266667,0.262222222 L22.0266667,0.699259259 L23.2503704,0.699259259 L23.2503704,1.04888889 L22.0266667,1.04888889 L22.0266667,1.66074074 L23.6874074,1.66074074 C23.6874074,1.2237037 23.6,0.699259259 23.6,0.174814815 L24.2118519,0.174814815 C24.2118519,0.262222222 24.2118519,0.262222222 24.037037,0.262222222 L24.037037,1.57333333 L25.96,1.57333333 L25.96,1.92296296 L24.2118519,1.92296296 L24.2118519,2.09777778 Z M20.802963,3.5837037 L20.802963,4.02074074 L21.677037,4.02074074 L21.677037,3.5837037 L20.802963,3.5837037 L20.802963,3.5837037 Z M20.802963,4.19555556 L20.802963,4.63259259 L21.677037,4.63259259 L21.677037,4.19555556 L20.802963,4.19555556 L20.802963,4.19555556 Z M22.9007407,3.93333333 L22.9007407,3.4962963 L22.0266667,3.4962963 L22.0266667,3.93333333 L22.9007407,3.93333333 L22.9007407,3.93333333 Z M22.9007407,4.63259259 L22.9007407,4.19555556 L22.0266667,4.19555556 L22.0266667,4.63259259 L22.9007407,4.63259259 L22.9007407,4.63259259 Z M24.9111111,0.34962963 C25.2607407,0.611851852 25.6977778,0.961481481 25.8725926,1.2237037 L25.522963,1.48592593 C25.3481481,1.2237037 24.9111111,0.786666667 24.5614815,0.524444444 L24.9111111,0.34962963 L24.9111111,0.34962963 Z" id="Shape"></path>
                        </g>
                    </g>
                </g>
            </g>
        </g>
    </g>
</svg>