<?xml version="1.0" encoding="UTF-8" standalone="no"?>
<svg width="98px" height="72px" viewBox="0 0 98 72" version="1.1" xmlns="http://www.w3.org/2000/svg" xmlns:xlink="http://www.w3.org/1999/xlink">
    <!-- Generator: Sketch 39.1 (31720) - http://www.bohemiancoding.com/sketch -->
    <title>Group</title>
    <desc>Created with Sketch.</desc>
    <defs></defs>
    <g id="Page-1" stroke="none" stroke-width="1" fill="none" fill-rule="evenodd">
        <g id="Menu" transform="translate(-20.000000, -27.000000)" fill="#EFEFEF">
            <g id="menu" transform="translate(20.000000, 27.000000)">
                <g id="Group">
                    <path d="M90.1,14.2 L7.1,14.2 C3.2,14.2 0,11 0,7.1 L0,7.1 C0,3.2 3.2,0 7.1,0 L90.1,0 C94,0 97.2,3.2 97.2,7.1 L97.2,7.1 C97.2,11 94,14.2 90.1,14.2 L90.1,14.2 Z" id="Shape"></path>
                    <path d="M90.1,42.7 L7.1,42.7 C3.2,42.7 0,39.5 0,35.6 L0,35.6 C0,31.7 3.2,28.5 7.1,28.5 L90.1,28.5 C94,28.5 97.2,31.7 97.2,35.6 L97.2,35.6 C97.2,39.5 94,42.7 90.1,42.7 L90.1,42.7 Z" id="Shape"></path>
                    <path d="M53.1,71.2 L7.1,71.2 C3.2,71.2 0,68 0,64.1 L0,64.1 C0,60.2 3.2,57 7.1,57 L53.1,57 C57,57 60.2,60.2 60.2,64.1 L60.2,64.1 C60.2,68 57,71.2 53.1,71.2 L53.1,71.2 Z" id="Shape"></path>
                    <path d="M90.1,71.2 L76.1,71.2 C72.2,71.2 69,68 69,64.1 L69,64.1 C69,60.2 72.2,57 76.1,57 L90.1,57 C94,57 97.2,60.2 97.2,64.1 L97.2,64.1 C97.2,68 94,71.2 90.1,71.2 L90.1,71.2 Z" id="Shape"></path>
                </g>
            </g>
        </g>
    </g>
</svg>