<?xml version="1.0" encoding="UTF-8" standalone="no"?>
<svg width="150px" height="150px" viewBox="0 0 150 150" version="1.1" xmlns="http://www.w3.org/2000/svg" xmlns:xlink="http://www.w3.org/1999/xlink">
    <!-- Generator: Sketch 39.1 (31720) - http://www.bohemiancoding.com/sketch -->
    <title>line</title>
    <desc>Created with Sketch.</desc>
    <defs></defs>
    <g id="Page-1" stroke="none" stroke-width="1" fill="none" fill-rule="evenodd">
        <g id="line">
            <circle id="Oval" fill="#37B700" cx="75" cy="75" r="75"></circle>
            <path d="M28.4169922,60.9931641 L28.4169922,87.0429688 L43.1142578,87.0429688 C44.2861387,87.0429688 45.185381,87.3277966 45.8120117,87.8974609 C46.4386425,88.4671252 46.7519531,89.1832639 46.7519531,90.0458984 C46.7519531,90.9248091 46.4427114,91.6368788 45.8242188,92.1821289 C45.2057261,92.727379 44.3024148,93 43.1142578,93 L25.609375,93 C24.0305911,93 22.8953485,92.6500686 22.2036133,91.9501953 C21.5118781,91.250322 21.1660156,90.1191484 21.1660156,88.5566406 L21.1660156,60.9931641 C21.1660156,59.528313 21.4956022,58.4296912 22.1547852,57.6972656 C22.8139681,56.9648401 23.6806587,56.5986328 24.7548828,56.5986328 C25.8453831,56.5986328 26.7283495,56.9607711 27.4038086,57.6850586 C28.0792677,58.4093461 28.4169922,59.5120369 28.4169922,60.9931641 L28.4169922,60.9931641 Z M51.8056641,89.1914062 L51.8056641,60.9931641 C51.8056641,59.528313 52.1393196,58.4296912 52.8066406,57.6972656 C53.4739617,56.9648401 54.3365833,56.5986328 55.3945312,56.5986328 C56.4850315,56.5986328 57.3679979,56.9607711 58.043457,57.6850586 C58.7189161,58.4093461 59.0566406,59.5120369 59.0566406,60.9931641 L59.0566406,89.1914062 C59.0566406,90.6725334 58.7189161,91.7792932 58.043457,92.5117188 C57.3679979,93.2441443 56.4850315,93.6103516 55.3945312,93.6103516 C54.3528594,93.6103516 53.4943068,93.2400753 52.8188477,92.4995117 C52.1433885,91.7589481 51.8056641,90.6562573 51.8056641,89.1914062 L51.8056641,89.1914062 Z M76.6103516,60.9443359 L90.5507812,82.0380859 L90.5507812,60.7490234 C90.5507812,59.365553 90.847816,58.3279657 91.4418945,57.6362305 C92.035973,56.9444952 92.8375601,56.5986328 93.8466797,56.5986328 C94.8883516,56.5986328 95.7102834,56.9444952 96.3125,57.6362305 C96.9147166,58.3279657 97.2158203,59.365553 97.2158203,60.7490234 L97.2158203,88.8984375 C97.2158203,92.0397292 95.91375,93.6103516 93.3095703,93.6103516 C92.6585254,93.6103516 92.0725937,93.5167653 91.5517578,93.3295898 C91.0309219,93.1424144 90.5426455,92.8453796 90.0869141,92.4384766 C89.6311826,92.0315735 89.2080098,91.555504 88.8173828,91.0102539 C88.4267559,90.4650038 88.0361348,89.9075549 87.6455078,89.3378906 L74.046875,68.4882812 L74.046875,89.4599609 C74.046875,90.8271553 73.7294954,91.8606736 73.0947266,92.5605469 C72.4599578,93.2604202 71.6461638,93.6103516 70.6533203,93.6103516 C69.6279246,93.6103516 68.8059927,93.2563512 68.1875,92.5483398 C67.5690073,91.8403285 67.2597656,90.8108792 67.2597656,89.4599609 L67.2597656,61.8476562 C67.2597656,60.6757754 67.3899727,59.7561882 67.6503906,59.0888672 C67.959637,58.3564417 68.4723271,57.7583031 69.1884766,57.2944336 C69.904626,56.8305641 70.6777302,56.5986328 71.5078125,56.5986328 C72.1588574,56.5986328 72.7163063,56.704426 73.1801758,56.9160156 C73.6440453,57.1276052 74.0509423,57.4124331 74.4008789,57.7705078 C74.7508156,58.1285825 75.1088849,58.5924451 75.4750977,59.1621094 C75.8413104,59.7317737 76.2197246,60.3258433 76.6103516,60.9443359 L76.6103516,60.9443359 Z M128.734375,62.7998047 L112.401367,62.7998047 L112.401367,71.5888672 L127.44043,71.5888672 C128.547206,71.5888672 129.373207,71.8370743 129.918457,72.3334961 C130.463707,72.8299178 130.736328,73.485022 130.736328,74.2988281 C130.736328,75.1126343 130.467776,75.7758763 129.930664,76.2885742 C129.393552,76.8012721 128.563482,77.0576172 127.44043,77.0576172 L112.401367,77.0576172 L112.401367,87.2382812 L129.295898,87.2382812 C130.435227,87.2382812 131.29378,87.5027643 131.871582,88.0317383 C132.449384,88.5607123 132.738281,89.264644 132.738281,90.1435547 C132.738281,90.9899131 132.449384,91.677569 131.871582,92.206543 C131.29378,92.735517 130.435227,93 129.295898,93 L109.59375,93 C108.014966,93 106.879724,92.6500686 106.187988,91.9501953 C105.496253,91.250322 105.150391,90.1191484 105.150391,88.5566406 L105.150391,61.6523438 C105.150391,60.6106719 105.305011,59.7602572 105.614258,59.1010742 C105.923504,58.4418912 106.407712,57.9617528 107.066895,57.6606445 C107.726078,57.3595363 108.568354,57.2089844 109.59375,57.2089844 L128.734375,57.2089844 C129.88998,57.2089844 130.748532,57.4653295 131.310059,57.9780273 C131.871585,58.4907252 132.152344,59.1621052 132.152344,59.9921875 C132.152344,60.8385459 131.871585,61.5180638 131.310059,62.0307617 C130.748532,62.5434596 129.88998,62.7998047 128.734375,62.7998047 L128.734375,62.7998047 Z" id="LINE" fill="#FFFFFF"></path>
        </g>
    </g>
</svg>